<?xml version="1.0" encoding="UTF-8"?>
<svg width="84px" height="28px" viewBox="0 0 84 28" version="1.1" xmlns="http://www.w3.org/2000/svg" xmlns:xlink="http://www.w3.org/1999/xlink">
    <!-- Generator: Sketch 49.1 (51147) - http://www.bohemiancoding.com/sketch -->
    <title>bwin</title>
    <desc>Created with Sketch.</desc>
    <defs>
        <polygon id="path-1" points="0.409207947 0.463921569 8.27739338 0.463921569 8.27739338 7.40402353 0.409207947 7.40402353"></polygon>
        <polygon id="path-3" points="0.000222516556 0.539466667 21.917524 0.539466667 21.917524 27.4509804 0.000222516556 27.4509804"></polygon>
    </defs>
    <g id="Page-1" stroke="none" stroke-width="1" fill="none" fill-rule="evenodd">
        <g id="HD" transform="translate(-1092.000000, -734.000000)">
            <g id="Group-4" transform="translate(744.000000, 640.000000)">
                <g id="Group-2" transform="translate(0.000000, 90.000000)">
                    <g id="Group-8">
                        <g id="bwin" transform="translate(348.000000, 4.000000)">
                            <g id="Page-1">
                                <polygon id="Fill-1" fill="#FFFFFF" points="55.5071244 9.76388684 51 28 58.3128615 28 63 9"></polygon>
                                <g id="Group-12">
                                    <path d="M79.0996848,8.92898039 C76.9512874,8.72145098 73.5985192,9.37478431 71.9424397,10.6210588 C71.9040556,9.93917647 71.7777775,9.40333333 71.629804,8.85431373 L65.2502543,9.62568627 C65.5044795,11.3847451 65.2535921,13.3354118 64.6266517,15.9613725 L61.7684265,27.536902 L68.9768503,27.536902 L71.9268636,15.7258431 C72.6494861,14.7019216 73.7976715,14.0167451 74.7684,14.0167451 C75.9694331,14.0167451 76.2620424,14.8852941 75.8898834,16.309451 L73.1195523,27.536902 L80.3285325,27.536902 L83.4215126,15.3431765 C84.159155,12.0380784 83.0727179,9.31439216 79.0996848,8.92898039" id="Fill-2" fill="#FFFFFF"></path>
                                    <g id="Group-6" transform="translate(55.629139, 0.000000)">
                                        <mask id="mask-2" fill="white">
                                            <use xlink:href="#path-1"></use>
                                        </mask>
                                        <g id="Clip-5"></g>
                                        <path d="M8.27739338,3.93367059 C8.27739338,2.02198431 6.58571126,0.463866667 4.42229404,0.463866667 C2.21882384,0.463866667 0.409207947,2.02198431 0.409207947,3.93367059 C0.409207947,5.84480784 2.17988344,7.40402353 4.30380397,7.40402353 C6.50616159,7.40402353 8.27739338,5.84480784 8.27739338,3.93367059" id="Fill-4" fill="#FFFFFF" mask="url(#mask-2)"></path>
                                    </g>
                                    <path d="M46.6202225,9.15770196 L44.3410967,14.3585647 C43.4988715,16.3119765 42.759004,18.1522902 42.1098119,19.9569176 L42.0213616,9.15770196 L35.5166464,9.15770196 L30.1284079,20.0475059 L30.710845,8.90844706 L23.5446993,9.79017255 L24.9943947,27.5372314 L31.3327788,27.5372314 C31.3327788,27.5372314 36.1408053,17.9617804 36.5713748,16.8538588 L36.6359046,27.5372314 L43.138951,27.5372314 L53.8703682,9.15770196 L46.6202225,9.15770196" id="Fill-7" fill="#FFFFFF"></path>
                                    <g id="Group-11" transform="translate(0.000000, 0.549020)">
                                        <mask id="mask-4" fill="white">
                                            <use xlink:href="#path-3"></use>
                                        </mask>
                                        <g id="Clip-10"></g>
                                        <path d="M13.8780238,17.655702 C13.049706,21.0749961 11.9721695,22.6067608 10.1492026,22.6067608 C9.40432848,22.6067608 8.7823947,22.4277804 8.45140132,22.1790745 L10.4395868,14.0228392 C10.8128583,13.7022118 11.4754013,13.1317804 12.5529377,13.1317804 C14.1678517,13.1317804 14.7480636,14.0228392 13.8780238,17.655702 M15.7838781,8.14558431 C13.9125139,8.14558431 12.5106596,8.62981961 11.6862358,9.0833098 C12.8650172,5.47625098 13.1275868,2.14644706 13.1275868,2.14644706 L13.1270305,2.14699608 C13.177653,1.60676078 13.1898914,0.963309804 13.1748715,0.539466667 L5.62043444,1.44589804 C5.70610331,2.64221176 5.52809007,4.53358431 4.5568053,8.57381961 L0.910871523,23.4615843 C0.74565298,24.1742118 0.331772185,25.5275451 0.000222516556,26.0260549 C2.27879205,26.7743686 4.88835497,27.4513098 9.19683179,27.4513098 C11.5582887,27.4513098 13.4224212,27.0230745 15.3282755,25.9184471 C18.6009377,24.0309176 20.6219444,20.6330353 21.457494,17.3350745 C23.0217854,11.1712314 20.4650702,8.14558431 15.7838781,8.14558431" id="Fill-9" fill="#FFFFFF" mask="url(#mask-4)"></path>
                                    </g>
                                </g>
                            </g>
                        </g>
                    </g>
                </g>
            </g>
        </g>
    </g>
</svg>